<svg width="26" height="18" viewBox="0 0 26 18" fill="none" xmlns="http://www.w3.org/2000/svg">
<path d="M5.03934 18C4.12126 18 3.34316 17.6757 2.70505 17.0271C2.06609 16.3784 1.74662 15.5908 1.74662 14.6642H0V0H18.7247V4.61094H21.6341L26 10.5442V14.6642H23.9621C23.9621 15.5908 23.6409 16.3784 22.9986 17.0271C22.3563 17.6757 21.5761 17.9996 20.658 17.9987C19.7399 17.9979 18.9622 17.674 18.325 17.0271C17.6877 16.3801 17.3682 15.5925 17.3665 14.6642H8.34214C8.34214 15.5959 8.02099 16.3848 7.37867 17.0309C6.73635 17.677 5.95615 18 5.03807 18M5.04312 16.7249C5.61061 16.7249 6.09193 16.5251 6.48707 16.1255C6.88222 15.726 7.07979 15.2389 7.07979 14.6642C7.07979 14.0895 6.88222 13.6029 6.48707 13.2042C6.09193 12.8055 5.61061 12.6057 5.04312 12.6048C4.47563 12.604 3.99431 12.8038 3.59917 13.2042C3.20402 13.6046 3.00645 14.0912 3.00645 14.6642C3.00645 15.2372 3.20402 15.7239 3.59917 16.1243C3.99431 16.5247 4.47563 16.7257 5.04312 16.7249ZM1.25983 13.3891H2.07576C2.25484 12.8263 2.62014 12.3426 3.17165 11.9379C3.72317 11.5333 4.347 11.3301 5.04312 11.3284C5.7073 11.3284 6.32355 11.5273 6.89189 11.9252C7.45938 12.3222 7.83266 12.8101 8.01174 13.3891H17.4611V1.27515H1.25983V13.3891ZM20.6618 16.7249C21.2293 16.7249 21.7106 16.5251 22.1057 16.1255C22.5009 15.7251 22.6985 15.238 22.6985 14.6642C22.6985 14.0904 22.5009 13.6037 22.1057 13.2042C21.7106 12.8046 21.2293 12.6048 20.6618 12.6048C20.0943 12.6048 19.613 12.8046 19.2178 13.2042C18.8227 13.6037 18.6251 14.0904 18.6251 14.6642C18.6251 15.238 18.8227 15.7247 19.2178 16.1243C19.613 16.5238 20.0943 16.7249 20.6618 16.7249ZM18.7222 10.8388H24.6645L20.9544 5.88609H18.7222V10.8388Z" fill="#757575"/>
</svg>
