<svg width="22" height="21" viewBox="0 0 22 21" fill="none" xmlns="http://www.w3.org/2000/svg">
<path d="M10.1688 14.7917C9.94366 14.7745 9.73426 14.6698 9.58543 14.5L6.08543 11C6.00745 10.8367 5.982 10.6533 6.0126 10.475C6.0432 10.2966 6.12833 10.1322 6.25628 10.0042C6.38423 9.87626 6.5487 9.79113 6.72704 9.76053C6.90538 9.72993 7.08882 9.75537 7.25209 9.83335L10.1338 12.715L20.0854 2.83335C20.2487 2.75537 20.4321 2.72993 20.6105 2.76053C20.7888 2.79112 20.9533 2.87626 21.0812 3.00421C21.2092 3.13215 21.2943 3.29662 21.3249 3.47496C21.3555 3.6533 21.3301 3.83674 21.2521 4.00002L10.7521 14.5C10.6033 14.6698 10.3939 14.7745 10.1688 14.7917Z" fill="#757575"/>
<path d="M10.4865 21.0002C8.60983 20.9972 6.76831 20.4913 5.15353 19.5351C3.53875 18.579 2.20974 17.2076 1.30479 15.5635C0.617845 14.3381 0.192765 12.9834 0.0564545 11.5852C-0.157068 9.5343 0.237999 7.46591 1.19237 5.63808C2.14675 3.81024 3.61818 2.30387 5.42312 1.30687C6.64855 0.619925 8.00324 0.194846 9.40145 0.0585355C10.7946 -0.0900247 12.2035 0.044906 13.5431 0.455202C13.6627 0.479086 13.7759 0.527681 13.8755 0.597874C13.9752 0.668067 14.0591 0.758308 14.1218 0.862814C14.1846 0.967319 14.2248 1.08378 14.2399 1.20474C14.255 1.3257 14.2447 1.44848 14.2096 1.56521C14.1745 1.68194 14.1154 1.79006 14.0361 1.88262C13.9568 1.97517 13.859 2.05014 13.749 2.10271C13.639 2.15527 13.5193 2.18428 13.3974 2.18786C13.2756 2.19145 13.1543 2.16954 13.0415 2.12354C11.9083 1.78216 10.7182 1.67109 9.54146 1.79687C8.37809 1.91502 7.25085 2.26827 6.22812 2.8352C5.24244 3.37899 4.37096 4.10787 3.66146 4.98187C2.93096 5.87222 2.38546 6.89939 2.05692 8.0032C1.72838 9.10702 1.6234 10.2653 1.74812 11.4102C1.86627 12.5736 2.21953 13.7008 2.78645 14.7235C3.33024 15.7092 4.05912 16.5807 4.93312 17.2902C5.82347 18.0207 6.85064 18.5662 7.95446 18.8947C9.05828 19.2233 10.2166 19.3283 11.3615 19.2035C12.5248 19.0854 13.6521 18.7321 14.6748 18.1652C15.6605 17.6214 16.532 16.8925 17.2415 16.0185C17.972 15.1282 18.5174 14.101 18.846 12.9972C19.1745 11.8934 19.2795 10.7351 19.1548 9.5902C19.1316 9.34731 19.2058 9.10514 19.3612 8.91698C19.5165 8.72882 19.7402 8.61007 19.9831 8.58687C20.226 8.56366 20.4682 8.6379 20.6563 8.79324C20.8445 8.94858 20.9632 9.17231 20.9865 9.4152C21.1989 11.4673 20.8021 13.5366 19.8456 15.3645C18.8891 17.1925 17.4152 18.6982 15.6081 19.6935C14.3696 20.4086 12.994 20.8539 11.5715 21.0002H10.4865Z" fill="#757575"/>
</svg>
