<svg width="15" height="16" viewBox="0 0 15 16" fill="none" xmlns="http://www.w3.org/2000/svg">
<g clip-path="url(#clip0_210_708)">
<path d="M15.6458 7.95637H5.86479M2.41233 7.95637H1M2.41233 7.95637C2.41233 7.49865 2.59416 7.05968 2.91782 6.73603C3.24148 6.41237 3.68045 6.23054 4.13817 6.23054C4.59589 6.23054 5.03486 6.41237 5.35852 6.73603C5.68217 7.05968 5.864 7.49865 5.864 7.95637C5.864 8.41409 5.68217 8.85307 5.35852 9.17672C5.03486 9.50038 4.59589 9.68221 4.13817 9.68221C3.68045 9.68221 3.24148 9.50038 2.91782 9.17672C2.59416 8.85307 2.41233 8.41409 2.41233 7.95637ZM15.6458 13.1869H11.0953M11.0953 13.1869C11.0953 13.6447 10.9131 14.0842 10.5893 14.4079C10.2656 14.7317 9.82653 14.9135 9.36871 14.9135C8.91099 14.9135 8.47202 14.7309 8.14836 14.4073C7.8247 14.0836 7.64288 13.6446 7.64288 13.1869M11.0953 13.1869C11.0953 12.7291 10.9131 12.2904 10.5893 11.9667C10.2656 11.643 9.82653 11.4611 9.36871 11.4611C8.91099 11.4611 8.47202 11.6429 8.14836 11.9666C7.8247 12.2902 7.64288 12.7292 7.64288 13.1869M7.64288 13.1869H1M15.6458 2.72583H13.1877M9.73525 2.72583H1M9.73525 2.72583C9.73525 2.26811 9.91708 1.82914 10.2407 1.50548C10.5644 1.18183 11.0034 1 11.4611 1C11.6877 1 11.9121 1.04464 12.1215 1.13137C12.3309 1.2181 12.5212 1.34523 12.6814 1.50548C12.8417 1.66574 12.9688 1.856 13.0555 2.06539C13.1423 2.27477 13.1869 2.49919 13.1869 2.72583C13.1869 2.95247 13.1423 3.17689 13.0555 3.38628C12.9688 3.59567 12.8417 3.78592 12.6814 3.94618C12.5212 4.10644 12.3309 4.23356 12.1215 4.3203C11.9121 4.40703 11.6877 4.45167 11.4611 4.45167C11.0034 4.45167 10.5644 4.26984 10.2407 3.94618C9.91708 3.62252 9.73525 3.18355 9.73525 2.72583Z" stroke="white" stroke-width="0.75" stroke-miterlimit="10" stroke-linecap="round"/>
</g>
<defs>
<clipPath id="clip0_210_708">
<rect width="15" height="16" fill="white"/>
</clipPath>
</defs>
</svg>
