<svg width="18" height="24" viewBox="0 0 18 24" fill="none" xmlns="http://www.w3.org/2000/svg">
<path d="M2.07771 23.0714C1.50171 23.0714 1.01143 22.8692 0.606857 22.4646C0.202286 22.06 0 21.5702 0 20.995V9.7193C0 9.14502 0.202286 8.65516 0.606857 8.24973C1.01143 7.84516 1.50171 7.64287 2.07771 7.64287H3.85714V5.07145C3.85714 3.63916 4.35643 2.42416 5.355 1.42645C6.35271 0.427875 7.56771 -0.0714111 9 -0.0714111C10.4323 -0.0714111 11.6477 0.427875 12.6463 1.42645C13.6449 2.42502 14.1437 3.64002 14.1429 5.07145V7.64287H15.9236C16.4979 7.64287 16.9877 7.84516 17.3931 8.24973C17.7977 8.6543 18 9.14459 18 9.72059V20.995C18 21.5693 17.7977 22.0592 17.3931 22.4646C16.9886 22.8692 16.4987 23.0714 15.9236 23.0714H2.07771ZM2.07771 21.7857H15.9236C16.1541 21.7857 16.3436 21.7116 16.4919 21.5633C16.6401 21.415 16.7143 21.2256 16.7143 20.995V9.7193C16.7143 9.48873 16.6401 9.2993 16.4919 9.15102C16.3436 9.00273 16.1541 8.92859 15.9236 8.92859H2.07643C1.84586 8.92859 1.65643 9.00273 1.50814 9.15102C1.35986 9.2993 1.28571 9.48916 1.28571 9.72059V20.995C1.28571 21.2256 1.35986 21.415 1.50814 21.5633C1.65643 21.7116 1.84629 21.7857 2.07771 21.7857ZM9 17.2857C9.54257 17.2857 9.99943 17.0997 10.3706 16.7277C10.7426 16.3566 10.9286 15.8997 10.9286 15.3572C10.9286 14.8146 10.7426 14.3577 10.3706 13.9866C9.99857 13.6154 9.54171 13.4294 9 13.4286C8.45829 13.4277 8.00143 13.6137 7.62943 13.9866C7.25743 14.3577 7.07143 14.8146 7.07143 15.3572C7.07143 15.8997 7.25743 16.3566 7.62943 16.7277C8.00057 17.0997 8.45743 17.2857 9 17.2857ZM5.14286 7.64287H12.8571V5.07145C12.8571 4.00002 12.4821 3.0893 11.7321 2.3393C10.9821 1.5893 10.0714 1.2143 9 1.2143C7.92857 1.2143 7.01786 1.5893 6.26786 2.3393C5.51786 3.0893 5.14286 4.00002 5.14286 5.07145V7.64287Z" fill="#757575"/>
</svg>
