<svg width="61" height="60" viewBox="0 0 61 60" fill="none" xmlns="http://www.w3.org/2000/svg">
<g clip-path="url(#clip0_138_5585)">
<ellipse cx="30.4999" cy="30.5661" rx="15.8491" ry="15.8491" fill="black"/>
<path fill-rule="evenodd" clip-rule="evenodd" d="M29.9341 5C43.7416 5 54.9341 16.1925 54.9341 30C54.9341 43.8075 43.7416 55 29.9341 55C16.1266 55 4.93408 43.8075 4.93408 30C4.93408 16.1925 16.1266 5 29.9341 5ZM29.9341 32.5C26.8896 32.5001 23.9499 33.6113 21.6666 35.625C21.1693 36.0636 20.8666 36.6818 20.8251 37.3436C20.7836 38.0053 21.0067 38.6565 21.4453 39.1538C21.8839 39.651 22.5021 39.9537 23.1639 39.9952C23.8257 40.0367 24.4768 39.8136 24.9741 39.375C26.3439 38.1669 28.1076 37.5002 29.9341 37.5C31.7614 37.4956 33.5267 38.1629 34.8941 39.375C35.3914 39.8139 36.0426 40.0373 36.7046 39.9961C37.3666 39.9548 37.9851 39.6523 38.4241 39.155C38.863 38.6577 39.0864 38.0064 39.0452 37.3444C39.0039 36.6824 38.7014 36.0639 38.2041 35.625C35.9201 33.6107 32.9794 32.4995 29.9341 32.5ZM21.1841 20C20.1895 20 19.2357 20.3951 18.5324 21.0983C17.8292 21.8016 17.4341 22.7554 17.4341 23.75C17.4341 24.7446 17.8292 25.6984 18.5324 26.4017C19.2357 27.1049 20.1895 27.5 21.1841 27.5C22.1786 27.5 23.1325 27.1049 23.8357 26.4017C24.539 25.6984 24.9341 24.7446 24.9341 23.75C24.9341 22.7554 24.539 21.8016 23.8357 21.0983C23.1325 20.3951 22.1786 20 21.1841 20ZM38.6841 20C37.6895 20 36.7357 20.3951 36.0324 21.0983C35.3292 21.8016 34.9341 22.7554 34.9341 23.75C34.9341 24.7446 35.3292 25.6984 36.0324 26.4017C36.7357 27.1049 37.6895 27.5 38.6841 27.5C39.6786 27.5 40.6325 27.1049 41.3357 26.4017C42.039 25.6984 42.4341 24.7446 42.4341 23.75C42.4341 22.7554 42.039 21.8016 41.3357 21.0983C40.6325 20.3951 39.6786 20 38.6841 20Z" fill="#FFCC00"/>
</g>
<defs>
<clipPath id="clip0_138_5585">
<rect width="60" height="60" fill="white" transform="translate(0.5)"/>
</clipPath>
</defs>
</svg>
